<svg xmlns="http://www.w3.org/2000/svg" fill="none" viewBox="0 0 128 128">
    <path d="M50.4 78.5a75.1 75.1 0 0 0-28.5 6.9l24.2-65.7c.7-2 1.9-3.2 3.4-3.2h29c1.5 0 2.7 1.2 3.4 3.2l24.2 65.7s-11.6-7-28.5-7L67 45.5c-.4-1.7-1.6-2.8-2.9-2.8-1.3 0-2.5 1.1-2.9 2.7L50.4 78.5Zm-1.1 28.2Zm-4.2-20.2c-2 6.6-.6 15.8 4.2 20.2a17.5 17.5 0 0 1 .2-.7 5.5 5.5 0 0 1 5.7-4.5c2.8.1 4.3 1.5 4.7 4.7.2 1.1.2 2.3.2 3.5v.4c0 2.7.7 5.2 2.2 7.4a13 13 0 0 0 5.7 4.9v-.3l-.2-.3c-1.8-5.6-.5-9.5 4.4-12.8l1.5-1a73 73 0 0 0 3.2-2.2 16 16 0 0 0 6.8-11.4c.3-2 .1-4-.6-6l-.8.6-12.6 11c-.7.5-1.3.7-2 .4-.6-.3-1-1-1.2-1.8a4 4 0 0 1 .2-3.1 54.3 54.3 0 0 1 5.7-8.8c-1.4 0-2.8-.1-4.3-.3-3.4-.4-6.7-1.3-9.9-2.7-4-1.7-7.6-4.2-10.8-7.4-2.5-2.5-4.5-5.4-6.2-8.6Zm107.4-74.1c-21.5-4.3-44 2.7-61.6 19.3-13.3 12.5-22.6 28.4-26.7 45.5-1.9 7.8-2.8 15.7-2.8 23.7 0 6.2.5 12.4 1.4 18.6.1.8.6 1.6 1.5 1.9.8.3 1.7.1 2.3-.4l11.5-10.5c.7-.6 1.2-1.5 1.4-2.4a32.7 32.7 0 0 0-.1-14.1 23.7 23.7 0 0 1 2.6-18.3 50.2 50.2 0 0 1 13.6-15.3c9.2-6.7 20-10.3 31-10.3 11.5 0 23 3.9 32.5 11.1 4.5 3.4 8.4 7.4 11.6 12a32.6 32.6 0 0 1 5.5 18.5c0 3.9-.8 7.7-2.3 11.4a29.9 29.9 0 0 1-6.7 10.1c-2.8 2.8-6 5.1-9.6 6.8a38 38 0 0 1-12.4 3.4c-4.5.4-9.1 0-13.5-1.2a35.4 35.4 0 0 1-12.2-5.7c-.7-.5-1.6-.7-2.5-.5s-1.6.7-2 1.5l-6.8 13.7c-.4.8-.4 1.7 0 2.5s1.1 1.4 2 1.6c12.3 3.3 25.4 3.8 38 1.5a65.6 65.6 0 0 0 34.3-19.2 63.3 63.3 0 0 0 18.4-35.1 64 64 0 0 0-11.8-54.2 64.9 64.9 0 0 0-44.8-25.5Z" />
</svg>
